<?xml version="1.0" encoding="UTF-8" standalone="no"?>
<!DOCTYPE svg PUBLIC "-//W3C//DTD SVG 1.1//EN"
 "http://www.w3.org/Graphics/SVG/1.1/DTD/svg11.dtd">
<!-- Generated by graphviz version 2.44.1 (20200629.0846)
 -->
<!-- Pages: 1 -->
<svg width="588pt" height="332pt"
 viewBox="0.00 0.00 587.78 332.00" xmlns="http://www.w3.org/2000/svg" xmlns:xlink="http://www.w3.org/1999/xlink">
<g id="graph0" class="graph" transform="scale(1 1) rotate(0) translate(4 328)">
<polygon fill="white" stroke="transparent" points="-4,4 -4,-328 583.78,-328 583.78,4 -4,4"/>
<!-- [root] aws_vpc.vpc -->
<g id="node1" class="node">
<title>[root] aws_vpc.vpc</title>
<polygon fill="none" stroke="black" points="205.14,-180 118.14,-180 118.14,-144 205.14,-144 205.14,-180"/>
<text text-anchor="middle" x="161.64" y="-158.3" font-family="Times,serif" font-size="14.00">aws_vpc.vpc</text>
</g>
<!-- [root] provider.aws -->
<g id="node3" class="node">
<title>[root] provider.aws</title>
<polygon fill="none" stroke="black" points="89.64,-108 10.55,-90 89.64,-72 168.74,-90 89.64,-108"/>
<text text-anchor="middle" x="89.64" y="-86.3" font-family="Times,serif" font-size="14.00">provider.aws</text>
</g>
<!-- [root] aws_vpc.vpc&#45;&gt;[root] provider.aws -->
<g id="edge1" class="edge">
<title>[root] aws_vpc.vpc&#45;&gt;[root] provider.aws</title>
<path fill="none" stroke="black" d="M143.84,-143.7C133.92,-134.05 121.5,-121.98 111.06,-111.82"/>
<polygon fill="black" stroke="black" points="113.47,-109.29 103.86,-104.82 108.59,-114.3 113.47,-109.29"/>
</g>
<!-- [root] var.cidr_block -->
<g id="node5" class="node">
<title>[root] var.cidr_block</title>
<polygon fill="none" stroke="black" points="276.14,-108 187.14,-108 187.14,-72 282.14,-72 282.14,-102 276.14,-108"/>
<polyline fill="none" stroke="black" points="276.14,-108 276.14,-102 "/>
<polyline fill="none" stroke="black" points="282.14,-102 276.14,-102 "/>
<text text-anchor="middle" x="234.64" y="-86.3" font-family="Times,serif" font-size="14.00">var.cidr_block</text>
</g>
<!-- [root] aws_vpc.vpc&#45;&gt;[root] var.cidr_block -->
<g id="edge2" class="edge">
<title>[root] aws_vpc.vpc&#45;&gt;[root] var.cidr_block</title>
<path fill="none" stroke="black" d="M179.69,-143.7C188.7,-135.05 199.76,-124.45 209.58,-115.03"/>
<polygon fill="black" stroke="black" points="212.01,-117.55 216.8,-108.1 207.16,-112.5 212.01,-117.55"/>
</g>
<!-- [root] local.vpc_name -->
<g id="node2" class="node">
<title>[root] local.vpc_name</title>
<polygon fill="none" stroke="black" points="449.14,-180 352.14,-180 352.14,-144 455.14,-144 455.14,-174 449.14,-180"/>
<polyline fill="none" stroke="black" points="449.14,-180 449.14,-174 "/>
<polyline fill="none" stroke="black" points="455.14,-174 449.14,-174 "/>
<text text-anchor="middle" x="403.64" y="-158.3" font-family="Times,serif" font-size="14.00">local.vpc_name</text>
</g>
<!-- [root] var.vpc_name -->
<g id="node6" class="node">
<title>[root] var.vpc_name</title>
<polygon fill="none" stroke="black" points="444.14,-108 357.14,-108 357.14,-72 450.14,-72 450.14,-102 444.14,-108"/>
<polyline fill="none" stroke="black" points="444.14,-108 444.14,-102 "/>
<polyline fill="none" stroke="black" points="450.14,-102 444.14,-102 "/>
<text text-anchor="middle" x="403.64" y="-86.3" font-family="Times,serif" font-size="14.00">var.vpc_name</text>
</g>
<!-- [root] local.vpc_name&#45;&gt;[root] var.vpc_name -->
<g id="edge3" class="edge">
<title>[root] local.vpc_name&#45;&gt;[root] var.vpc_name</title>
<path fill="none" stroke="black" d="M403.64,-143.7C403.64,-135.98 403.64,-126.71 403.64,-118.11"/>
<polygon fill="black" stroke="black" points="407.14,-118.1 403.64,-108.1 400.14,-118.1 407.14,-118.1"/>
</g>
<!-- [root] var.aws_region -->
<g id="node4" class="node">
<title>[root] var.aws_region</title>
<polygon fill="none" stroke="black" points="133.14,-36 40.14,-36 40.14,0 139.14,0 139.14,-30 133.14,-36"/>
<polyline fill="none" stroke="black" points="133.14,-36 133.14,-30 "/>
<polyline fill="none" stroke="black" points="139.14,-30 133.14,-30 "/>
<text text-anchor="middle" x="89.64" y="-14.3" font-family="Times,serif" font-size="14.00">var.aws_region</text>
</g>
<!-- [root] provider.aws&#45;&gt;[root] var.aws_region -->
<g id="edge7" class="edge">
<title>[root] provider.aws&#45;&gt;[root] var.aws_region</title>
<path fill="none" stroke="black" d="M89.64,-71.7C89.64,-63.98 89.64,-54.71 89.64,-46.11"/>
<polygon fill="black" stroke="black" points="93.14,-46.1 89.64,-36.1 86.14,-46.1 93.14,-46.1"/>
</g>
<!-- [root] meta.count&#45;boundary (EachMode fixup) -->
<g id="node7" class="node">
<title>[root] meta.count&#45;boundary (EachMode fixup)</title>
<ellipse fill="none" stroke="black" cx="403.64" cy="-234" rx="176.27" ry="18"/>
<text text-anchor="middle" x="403.64" y="-230.3" font-family="Times,serif" font-size="14.00">[root] meta.count&#45;boundary (EachMode fixup)</text>
</g>
<!-- [root] meta.count&#45;boundary (EachMode fixup)&#45;&gt;[root] aws_vpc.vpc -->
<g id="edge4" class="edge">
<title>[root] meta.count&#45;boundary (EachMode fixup)&#45;&gt;[root] aws_vpc.vpc</title>
<path fill="none" stroke="black" d="M347.82,-216.85C307.93,-205.31 254.56,-189.88 215.2,-178.49"/>
<polygon fill="black" stroke="black" points="216.08,-175.1 205.51,-175.69 214.14,-181.83 216.08,-175.1"/>
</g>
<!-- [root] meta.count&#45;boundary (EachMode fixup)&#45;&gt;[root] local.vpc_name -->
<g id="edge5" class="edge">
<title>[root] meta.count&#45;boundary (EachMode fixup)&#45;&gt;[root] local.vpc_name</title>
<path fill="none" stroke="black" d="M403.64,-215.7C403.64,-207.98 403.64,-198.71 403.64,-190.11"/>
<polygon fill="black" stroke="black" points="407.14,-190.1 403.64,-180.1 400.14,-190.1 407.14,-190.1"/>
</g>
<!-- [root] provider.aws (close) -->
<g id="node8" class="node">
<title>[root] provider.aws (close)</title>
<ellipse fill="none" stroke="black" cx="104.64" cy="-234" rx="104.78" ry="18"/>
<text text-anchor="middle" x="104.64" y="-230.3" font-family="Times,serif" font-size="14.00">[root] provider.aws (close)</text>
</g>
<!-- [root] provider.aws (close)&#45;&gt;[root] aws_vpc.vpc -->
<g id="edge6" class="edge">
<title>[root] provider.aws (close)&#45;&gt;[root] aws_vpc.vpc</title>
<path fill="none" stroke="black" d="M118.44,-216.05C125.27,-207.67 133.65,-197.38 141.21,-188.1"/>
<polygon fill="black" stroke="black" points="143.97,-190.24 147.57,-180.28 138.55,-185.82 143.97,-190.24"/>
</g>
<!-- [root] root -->
<g id="node9" class="node">
<title>[root] root</title>
<ellipse fill="none" stroke="black" cx="253.64" cy="-306" rx="47.39" ry="18"/>
<text text-anchor="middle" x="253.64" y="-302.3" font-family="Times,serif" font-size="14.00">[root] root</text>
</g>
<!-- [root] root&#45;&gt;[root] meta.count&#45;boundary (EachMode fixup) -->
<g id="edge8" class="edge">
<title>[root] root&#45;&gt;[root] meta.count&#45;boundary (EachMode fixup)</title>
<path fill="none" stroke="black" d="M282.56,-291.5C304.15,-281.43 334.06,-267.47 358.75,-255.95"/>
<polygon fill="black" stroke="black" points="360.34,-259.07 367.93,-251.67 357.38,-252.72 360.34,-259.07"/>
</g>
<!-- [root] root&#45;&gt;[root] provider.aws (close) -->
<g id="edge9" class="edge">
<title>[root] root&#45;&gt;[root] provider.aws (close)</title>
<path fill="none" stroke="black" d="M224.91,-291.5C203.09,-281.25 172.72,-266.98 147.95,-255.35"/>
<polygon fill="black" stroke="black" points="149.31,-252.12 138.77,-251.03 146.33,-258.45 149.31,-252.12"/>
</g>
</g>
</svg>
